{"title":"Snitch.2013.480p.BRRip.XviD.AC3-PTpOWeR","uid":8495356,"size":1721412571,"categoryP":"video","categoryS":"movies","magnet":"?xt=urn:btih:8fd9da4678d65de3c9ae29bd0c00b8408028a078&amp;dn=Snitch.2013.480p.BRRip.XviD.AC3-PTpOWeR&amp;tr=udp%3A%2F%2Ftracker.openbittorrent.com%3A80&amp;tr=udp%3A%2F%2Fopen.demonii.com%3A1337&amp;tr=udp%3A%2F%2Ftracker.coppersurfer.tk%3A6969&amp;tr=udp%3A%2F%2Fexodus.desync.com%3A6969","seeders":0,"leechers":0,"uploader":"xxxlavalxxx","files":-1,"time":1369127590,"description":"  &lt;a href=&quot;\nhttp://www.imdb.com/title/tt0882977/&quot; rel=&quot;nofollow&quot; target=&quot;_NEW&quot;&gt;\nhttp://www.imdb.com/title/tt0882977/&lt;/a&gt;\n\n\n\nPlot: A father goes undercover for the DEA in order to free his son who was imprisoned after being set up in drug deal. \n\n\n\nDirector:\n Ric Roman Waugh\n\nWriters:\n Justin Haythe, Ric Roman Waugh\n\nStars:\n Dwayne Johnson, Susan Sarandon, Jon Bernthal\n\nGenres:\n Action | Drama | Thriller \n\nCountry:\nUSA \n\n\n\nFormat                                   : AVI\nFormat/Info                              : Audio Video Interleave\nFormat profile                           : OpenDML\nFormat settings                          : rec\nFile size                                : 1.60 GiB\nDuration                                 : 1h 51mn\nOverall bit rate                         : 2 052 Kbps\nWriting application                      : AVI-Mux GUI 1.17.8.3, Feb 16 201019:42:50\n\nVideo\nID                                       : 0\nFormat                                   : MPEG-4 Visual\nFormat profile                           : Advanced Simple@L5\nFormat settings, BVOP                    : 2\nFormat settings, QPel                    : No\nFormat settings, GMC                     : No warppoints\nFormat settings, Matrix                  : Default (H.263)\nMuxing mode                              : Packed bitstream\nCodec ID                                 : XVID\nCodec ID/Hint                            : XviD\nDuration                                 : 1h 51mn\nBit rate                                 : 1 598 Kbps\nWidth                                    : 720 pixels\nHeight                                   : 304 pixels\nDisplay aspect ratio                     : 2.35:1\nFrame rate                               : 23.976 fps\nColor space                              : YUV\nChroma subsampling                       : 4:2:0\nBit depth                                : 8 bits\nScan type                                : Progressive\nCompression mode                         : Lossy\nBits/(Pixel*Frame)                       : 0.305\nStream size                              : 1.25 GiB (78%)\nWriting library                          : XviD 64\n\nAudio\nID                                       : 1\nFormat                                   : AC-3\nFormat/Info                              : Audio Coding 3\nMode extension                           : CM (complete main)\nFormat settings, Endianness              : Big\nCodec ID                                 : 2000\nDuration                                 : 1h 51mn\nBit rate mode                            : Constant\nBit rate                                 : 448 Kbps\nChannel(s)                               : 6 channels\nChannel positions                        : Front: L C R, Side: L R, LFE\nSampling rate                            : 48.0 KHz\nBit depth                                : 16 bits\nCompression mode                         : Lossy\nStream size                              : 358 MiB (22%)\nAlignment                                : Aligned on interleaves\nInterleave, duration                     : 64 ms (1.53 video frames)\nInterleave, preload duration             : 192 ms\nTitle                                    : ams-snitch-1080p\n\n\n\n\n    &lt;a href=&quot;\thttp://addpix.net/viewer.php?file=56537352713989061759.jpg&quot; rel=&quot;nofollow&quot; target=&quot;_NEW&quot;&gt;\thttp://addpix.net/viewer.php?file=56537352713989061759.jpg&lt;/a&gt;\n    &lt;a href=&quot;\thttp://addpix.net/viewer.php?file=76388671013595095355.jpg&quot; rel=&quot;nofollow&quot; target=&quot;_NEW&quot;&gt;\thttp://addpix.net/viewer.php?file=76388671013595095355.jpg&lt;/a&gt;\n    &lt;a href=&quot;\thttp://addpix.net/viewer.php?file=30235775461690926090.jpg&quot; rel=&quot;nofollow&quot; target=&quot;_NEW&quot;&gt;\thttp://addpix.net/viewer.php?file=30235775461690926090.jpg&lt;/a&gt;\n    &lt;a href=&quot;\thttp://addpix.net/viewer.php?file=47051104175363287870.jpg&quot; rel=&quot;nofollow&quot; target=&quot;_NEW&quot;&gt;\thttp://addpix.net/viewer.php?file=47051104175363287870.jpg&lt;/a&gt;\n    &lt;a href=&quot;\thttp://addpix.net/viewer.php?file=66788374079052737541.jpg&quot; rel=&quot;nofollow&quot; target=&quot;_NEW&quot;&gt;\thttp://addpix.net/viewer.php?file=66788374079052737541.jpg&lt;/a&gt;","torrent":{"xt":"urn:btih:8fd9da4678d65de3c9ae29bd0c00b8408028a078","amp;dn":"Snitch.2013.480p.BRRip.XviD.AC3-PTpOWeR","amp;tr":["udp%3A%2F%2Ftracker.openbittorrent.com%3A80","udp%3A%2F%2Fopen.demonii.com%3A1337","udp%3A%2F%2Ftracker.coppersurfer.tk%3A6969","udp%3A%2F%2Fexodus.desync.com%3A6969"],"infoHash":"8fd9da4678d65de3c9ae29bd0c00b8408028a078","infoHashBuffer":{"type":"Buffer","data":[143,217,218,70,120,214,93,227,201,174,41,189,12,0,184,64,128,40,160,120]},"announce":[],"urlList":[]}}